<svg width="239" height="24" viewBox="0 0 239 24" fill="none" xmlns="http://www.w3.org/2000/svg">
<g clip-path="url(#clip0_13_1566)">
<mask id="mask0_13_1566" style="mask-type:luminance" maskUnits="userSpaceOnUse" x="0" y="0" width="37" height="24">
<path d="M36.6114 0H0.0400391V24H36.6114V0Z" fill="white"/>
</mask>
<g mask="url(#mask0_13_1566)">
<path fill-rule="evenodd" clip-rule="evenodd" d="M0.0400391 1.71429C0.0400391 0.767511 0.807551 0 1.75432 0H34.8972C35.844 0 36.6115 0.767512 36.6115 1.71429V22.2857C36.6115 23.2325 35.844 24 34.8972 24H1.75433C0.807553 24 0.0400391 23.2325 0.0400391 22.2857V1.71429Z" fill="#F4F6F7"/>
<path fill-rule="evenodd" clip-rule="evenodd" d="M0.0400391 1.71429C0.0400391 0.767514 0.807551 0 1.75432 0H34.8972C35.844 0 36.6115 0.767512 36.6115 1.71429V5.71429H0.0400391V1.71429Z" fill="#4095DB"/>
<path fill-rule="evenodd" clip-rule="evenodd" d="M0.0400391 18.2858H36.6115V22.2858C36.6115 23.2325 35.844 24.0001 34.8972 24.0001H1.75433C0.807553 24.0001 0.0400391 23.2325 0.0400391 22.2858V18.2858Z" fill="#F4B662"/>
<path fill-rule="evenodd" clip-rule="evenodd" d="M23.0577 8.32528C22.7019 8.16973 22.1422 8 21.445 8C19.6657 8 18.4132 9.05183 18.4028 10.5578C18.3915 11.6717 19.2966 12.2931 19.979 12.6633C20.6802 13.0428 20.9159 13.2857 20.9131 13.6251C20.9082 14.1441 20.3533 14.382 19.8359 14.382C19.1154 14.382 18.7325 14.2649 18.1407 13.9755L17.9092 13.8522L17.6575 15.5869C18.0772 15.8028 18.8551 15.9902 19.6625 16C21.5535 16 22.7822 14.961 22.7967 13.3528C22.8031 12.4694 22.3236 11.7998 21.285 11.2469C20.6561 10.8877 20.2701 10.6496 20.2745 10.2859C20.2749 9.96369 20.6006 9.61895 21.3055 9.61895C21.8941 9.60842 22.3203 9.75916 22.6523 9.91665L22.814 10.0054L23.0577 8.32528ZM14.7301 15.8862L15.8559 8.13613H17.6556L16.5298 15.8862H14.7301ZM26.1713 10.9722C26.1713 10.9722 25.6035 12.6929 25.4544 13.1384H26.9485C26.8773 12.751 26.532 10.9012 26.532 10.9012L26.4105 10.2327C26.3625 10.3863 26.2955 10.5898 26.2445 10.7445C26.1991 10.8825 26.1664 10.9818 26.1713 10.9722ZM27.6743 8.14351H26.2835C25.8521 8.14351 25.5292 8.28063 25.3402 8.78594L22.6676 15.8884H24.5578C24.5578 15.8884 24.8662 14.9329 24.9362 14.7232C25.0331 14.7232 25.4902 14.7241 25.9747 14.7251C26.5209 14.7261 27.1024 14.7273 27.2413 14.7273C27.2952 14.9977 27.4604 15.8884 27.4604 15.8884H29.1308L27.6743 8.14351ZM13.2201 8.14048L11.4586 13.4241L11.27 12.3501L10.6395 8.78943C10.5307 8.29831 10.2145 8.15273 9.82365 8.13556H6.92144L6.89746 8.29614C7.60347 8.49683 8.23479 8.78623 8.78808 9.14617L10.3885 15.8772L12.2931 15.876L15.1273 8.14048H13.2201Z" fill="#0071CE"/>
<path fill-rule="evenodd" clip-rule="evenodd" d="M0.0400391 1.5C0.0400391 0.671573 0.711612 0 1.54004 0H30.54C31.3685 0 32.04 0.671573 32.04 1.5V19.5C32.04 20.3284 31.3685 21 30.54 21H1.54004C0.711612 21 0.0400391 20.3284 0.0400391 19.5V1.5Z" fill="#E5E5E5" fill-opacity="0.01"/>
</g>
</g>
<g clip-path="url(#clip1_13_1566)">
<mask id="mask1_13_1566" style="mask-type:luminance" maskUnits="userSpaceOnUse" x="53" y="0" width="38" height="24">
<path d="M90.1827 0H53.6113V24H90.1827V0Z" fill="white"/>
</mask>
<g mask="url(#mask1_13_1566)">
<path fill-rule="evenodd" clip-rule="evenodd" d="M53.6113 1.71429C53.6113 0.767511 54.3788 0 55.3256 0H88.4685C89.4152 0 90.1828 0.767512 90.1828 1.71429V22.2857C90.1828 23.2325 89.4152 24 88.4685 24H55.3256C54.3788 24 53.6113 23.2325 53.6113 22.2857V1.71429Z" fill="#F4F6F7"/>
<path fill-rule="evenodd" clip-rule="evenodd" d="M67.8966 18.2858C71.3681 18.2858 74.1823 15.4716 74.1823 12.0001C74.1823 8.52857 71.3681 5.71436 67.8966 5.71436C64.425 5.71436 61.6108 8.52857 61.6108 12.0001C61.6108 15.4716 64.425 18.2858 67.8966 18.2858Z" fill="#D8232A"/>
<path fill-rule="evenodd" clip-rule="evenodd" d="M71.8965 16.849C72.9833 17.7466 74.3769 18.2858 75.8965 18.2858C79.368 18.2858 82.1822 15.4716 82.1822 12.0001C82.1822 8.52857 79.368 5.71436 75.8965 5.71436C74.3769 5.71436 72.9833 6.25358 71.8965 7.15111C73.2925 8.30402 74.1822 10.0481 74.1822 12.0001C74.1822 13.952 73.2925 15.6961 71.8965 16.849Z" fill="#ED9F2D"/>
<path fill-rule="evenodd" clip-rule="evenodd" d="M71.8961 7.151C70.5001 8.30391 69.6104 10.048 69.6104 12C69.6104 13.9519 70.5001 15.696 71.8961 16.8489C73.2921 15.696 74.1818 13.9519 74.1818 12C74.1818 10.048 73.2921 8.30391 71.8961 7.151Z" fill="#D8232A"/>
<mask id="mask2_13_1566" style="mask-type:alpha" maskUnits="userSpaceOnUse" x="69" y="7" width="6" height="10">
<path fill-rule="evenodd" clip-rule="evenodd" d="M71.8961 7.151C70.5001 8.30391 69.6104 10.048 69.6104 12C69.6104 13.9519 70.5001 15.696 71.8961 16.8489C73.2921 15.696 74.1818 13.9519 74.1818 12C74.1818 10.048 73.2921 8.30391 71.8961 7.151Z" fill="white"/>
</mask>
<g mask="url(#mask2_13_1566)">
<path fill-rule="evenodd" clip-rule="evenodd" d="M68.4678 8H75.3249V9.14286H68.4678V8ZM68.4678 10.2857H75.3249V11.4286H68.4678V10.2857ZM75.3249 12.5714H68.4678V13.7143H75.3249V12.5714ZM68.4678 14.8571H75.3249V16H68.4678V14.8571ZM75.3249 17.1429H68.4678V18.2857H75.3249V17.1429Z" fill="#ED9F2D"/>
</g>
<path fill-rule="evenodd" clip-rule="evenodd" d="M53.6113 1.5C53.6113 0.671573 54.2829 0 55.1113 0H84.1113C84.9398 0 85.6113 0.671573 85.6113 1.5V19.5C85.6113 20.3284 84.9398 21 84.1113 21H55.1113C54.2829 21 53.6113 20.3284 53.6113 19.5V1.5Z" fill="#E5E5E5" fill-opacity="0.01"/>
</g>
</g>
<g clip-path="url(#clip2_13_1566)">
<mask id="mask3_13_1566" style="mask-type:luminance" maskUnits="userSpaceOnUse" x="107" y="0" width="37" height="24">
<path d="M143.897 0H107.326V24H143.897V0Z" fill="white"/>
</mask>
<g mask="url(#mask3_13_1566)">
<path fill-rule="evenodd" clip-rule="evenodd" d="M107.326 1.71429C107.326 0.767511 108.093 0 109.04 0H142.183C143.13 0 143.897 0.767512 143.897 1.71429V22.2857C143.897 23.2325 143.13 24 142.183 24H109.04C108.093 24 107.326 23.2325 107.326 22.2857V1.71429Z" fill="#1A1A1A"/>
<path fill-rule="evenodd" clip-rule="evenodd" d="M107.326 1.5C107.326 0.671573 107.997 0 108.826 0H137.826C138.654 0 139.326 0.671573 139.326 1.5V19.5C139.326 20.3284 138.654 21 137.826 21H108.826C107.997 21 107.326 20.3284 107.326 19.5V1.5Z" fill="#E5E5E5" fill-opacity="0.01"/>
<path d="M117.549 9.56497C117.813 9.47962 118.095 9.43411 118.387 9.43411C119.666 9.43411 120.733 10.3149 120.977 11.4859L122.79 11.1274C122.374 9.13824 120.561 7.64062 118.387 7.64062C117.888 7.64062 117.411 7.71915 116.962 7.86481L117.549 9.56497Z" fill="#FFCB05"/>
<path d="M115.41 15.2609L116.636 13.9169C116.09 13.4469 115.745 12.7607 115.745 11.9959C115.745 11.2324 116.09 10.5461 116.636 10.0773L115.41 8.73218C114.481 9.53105 113.895 10.6975 113.895 11.9959C113.895 13.2955 114.481 14.462 115.41 15.2609Z" fill="#00A4E0"/>
<path d="M120.977 12.5111C120.732 13.681 119.666 14.5606 118.388 14.5606C118.095 14.5606 117.812 14.5151 117.549 14.4286L116.962 16.1311C117.411 16.2756 117.889 16.3541 118.388 16.3541C120.56 16.3541 122.372 14.8588 122.79 12.8719L120.977 12.5111Z" fill="#EF4123"/>
<path d="M124.374 13.975C124.314 13.8816 124.234 13.7326 124.185 13.6222C123.898 12.9758 123.885 12.3067 124.126 11.6648C124.393 10.9604 124.902 10.4221 125.56 10.1467C126.387 9.80194 127.301 9.86909 128.094 10.3254C128.598 10.6054 128.954 11.0378 129.225 11.65C129.259 11.7286 129.29 11.8116 129.32 11.8833L124.374 13.975ZM126.026 11.1857C125.438 11.4304 125.135 11.9653 125.199 12.5912L127.686 11.5522C127.258 11.0651 126.702 10.9035 126.026 11.1857ZM127.996 13.4458L127.995 13.4469L127.943 13.4128C127.794 13.6461 127.563 13.8361 127.271 13.959C126.715 14.1935 126.2 14.1331 125.829 13.8179L125.795 13.868L125.794 13.8668L125.162 14.7829C125.32 14.8888 125.487 14.9775 125.663 15.0492C126.36 15.3303 127.074 15.3167 127.776 15.0208C128.284 14.8068 128.683 14.4814 128.955 14.0683L127.996 13.4458Z" fill="white"/>
<path d="M131.049 8.79688V13.8883L131.866 14.2092L131.402 15.2584L130.501 14.8943C130.3 14.8089 130.161 14.6792 130.058 14.5324C129.958 14.3833 129.884 14.1773 129.884 13.9019V8.79688H131.049Z" fill="white"/>
<path d="M133.163 12.5931C133.163 12.1595 133.361 11.7703 133.674 11.5063L132.836 10.6005C132.268 11.0875 131.91 11.7988 131.91 12.5908C131.909 13.384 132.267 14.0964 132.834 14.5834L133.67 13.6776C133.359 13.4124 133.163 13.0255 133.163 12.5931Z" fill="white"/>
<path d="M134.651 14.0357C134.486 14.0357 134.327 14.0084 134.179 13.9606L133.779 15.1134C134.052 15.2021 134.344 15.2511 134.649 15.2511C135.975 15.2522 137.081 14.3395 137.338 13.1276L136.109 12.884C135.969 13.5429 135.37 14.0368 134.651 14.0357Z" fill="white"/>
<path d="M134.655 9.93311C134.351 9.93311 134.059 9.98089 133.785 10.0685L134.182 11.2225C134.331 11.1747 134.489 11.1485 134.653 11.1485C135.374 11.1496 135.974 11.6458 136.111 12.3058L137.34 12.0646C137.088 10.8503 135.981 9.93424 134.655 9.93311Z" fill="white"/>
</g>
</g>
<g clip-path="url(#clip3_13_1566)">
<mask id="mask4_13_1566" style="mask-type:luminance" maskUnits="userSpaceOnUse" x="160" y="0" width="38" height="24">
<path d="M197.325 0H160.754V24H197.325V0Z" fill="white"/>
</mask>
<g mask="url(#mask4_13_1566)">
<path fill-rule="evenodd" clip-rule="evenodd" d="M160.754 1.71429C160.754 0.767511 161.521 0 162.468 0H195.611C196.558 0 197.325 0.767512 197.325 1.71429V22.2857C197.325 23.2325 196.558 24 195.611 24H162.468C161.521 24 160.754 23.2325 160.754 22.2857V1.71429Z" fill="#F4F6F7"/>
<path fill-rule="evenodd" clip-rule="evenodd" d="M160.755 1.5C160.755 0.671573 161.426 0 162.255 0H191.255C192.083 0 192.755 0.671573 192.755 1.5V19.5C192.755 20.3284 192.083 21 191.255 21H162.255C161.426 21 160.755 20.3284 160.755 19.5V1.5Z" fill="#E5E5E5" fill-opacity="0.01"/>
<path fill-rule="evenodd" clip-rule="evenodd" d="M180.54 17.6916C183.63 17.7065 186.449 15.1492 186.449 12.0382C186.449 8.63609 183.63 6.28451 180.54 6.28564H177.882C174.755 6.28451 172.182 8.6368 172.182 12.0382C172.182 15.1499 174.755 17.7065 177.882 17.6916H180.54Z" fill="url(#paint0_linear_13_1566)"/>
<path fill-rule="evenodd" clip-rule="evenodd" d="M177.893 6.76111C175.036 6.76201 172.721 9.09865 172.72 11.9825C172.721 14.8659 175.036 17.2023 177.893 17.2032C180.75 17.2023 183.065 14.8659 183.066 11.9825C183.065 9.09865 180.75 6.76201 177.893 6.76111ZM174.614 11.9813C174.617 10.572 175.489 9.37034 176.719 8.8928V15.069C175.489 14.5917 174.617 13.3907 174.614 11.9813ZM179.066 15.0705V8.8928C180.297 9.36918 181.17 10.5716 181.172 11.9815C181.17 13.3918 180.297 14.5933 179.066 15.0705Z" fill="#F4F6F7"/>
</g>
</g>
<g clip-path="url(#clip4_13_1566)">
<path d="M233.613 18.36C232.672 18.36 231.786 17.9934 231.12 17.3279L227.521 13.7283C227.268 13.4749 226.828 13.4757 226.575 13.7283L222.962 17.3411C222.296 18.0065 221.411 18.3731 220.469 18.3731H219.76L224.319 22.9322C225.743 24.3559 228.051 24.3559 229.475 22.9322L234.047 18.36H233.613Z" fill="#32BCAD"/>
<path d="M220.469 5.62685C221.411 5.62685 222.296 5.99359 222.962 6.65912L226.575 10.2725C226.835 10.5327 227.26 10.5338 227.521 10.2722L231.12 6.67222C231.786 6.00669 232.672 5.64006 233.613 5.64006H234.047L229.475 1.06801C228.051 -0.35584 225.742 -0.35584 224.319 1.06801L219.76 5.62685H220.469Z" fill="#32BCAD"/>
<path d="M237.829 9.42219L235.066 6.65927C235.005 6.68365 234.939 6.69889 234.869 6.69889H233.613C232.964 6.69889 232.328 6.96223 231.869 7.42143L228.269 11.0211C227.933 11.358 227.49 11.5266 227.048 11.5266C226.605 11.5266 226.163 11.358 225.826 11.0215L222.213 7.40833C221.754 6.94914 221.118 6.68579 220.469 6.68579H218.924C218.859 6.68579 218.797 6.67022 218.739 6.64832L215.965 9.42219C214.541 10.846 214.541 13.1544 215.965 14.5784L218.739 17.3522C218.797 17.3303 218.859 17.3147 218.924 17.3147H220.469C221.118 17.3147 221.754 17.0514 222.213 16.5922L225.826 12.9794C226.479 12.3269 227.617 12.3266 228.269 12.9797L231.869 16.579C232.328 17.0383 232.964 17.3016 233.613 17.3016H234.869C234.939 17.3016 235.005 17.3167 235.066 17.3411L237.829 14.5784C239.252 13.1544 239.252 10.846 237.829 9.42219Z" fill="#32BCAD"/>
</g>
<defs>
<linearGradient id="paint0_linear_13_1566" x1="189.41" y1="15.5088" x2="185.751" y2="3.55142" gradientUnits="userSpaceOnUse">
<stop stop-color="#009BE0"/>
<stop offset="1" stop-color="#006BA8"/>
</linearGradient>
<clipPath id="clip0_13_1566">
<rect width="37" height="24" fill="white"/>
</clipPath>
<clipPath id="clip1_13_1566">
<rect width="38" height="24" fill="white" transform="translate(53)"/>
</clipPath>
<clipPath id="clip2_13_1566">
<rect width="37" height="24" fill="white" transform="translate(107)"/>
</clipPath>
<clipPath id="clip3_13_1566">
<rect width="38" height="24" fill="white" transform="translate(160)"/>
</clipPath>
<clipPath id="clip4_13_1566">
<rect width="25" height="24" fill="white" transform="translate(214)"/>
</clipPath>
</defs>
</svg>
